# xmcd CD database file
#
# Track frame offsets:
#	150
#	15228
#	34198
#	58343
#	83228
#	97065
#	113913
#	153913
#	204155
#	213735
#	226653
#	240515
#	255950
#
# Disc length: 3725 seconds
#
# Revision: 0
# Processed by: cddbd v1.5.1PL0 Copyright (c) Steve Scherf et al.
# Submitted via: CDex 1.51
#
DISCID=9d0e8b0d
DTITLE=Various Artist - Performance - The Entertainers
DYEAR=1990
DGENRE=Jazz
TTITLE0=Lester Leaps In - Lester Young
TTITLE1=These Foolish Things - Lester Young
TTITLE2=The Way You Look Tonight - Sonny Stitt
TTITLE3=Satin Doll - Sonny Stitt
TTITLE4=Stanger In Paradise - Jimmy Smith
TTITLE5=Jeepers Creepers - Jimmy Smith
TTITLE6=All The Things You Are - George Benson
TTITLE7=Love For Sale - Herbie Hancock
TTITLE8=Afro Boogie - Herbie Hancock
TTITLE9=Hot Lips - Miles Davis
TTITLE10=A Night In Tunisia - Miles Davis
TTITLE11=Smoke Gets In Your Eyes - Thelonius Monk
TTITLE12=Round Midnigt - Thelonius Monk
EXTD=YEAR: 1990
EXTT0=
EXTT1=
EXTT2=
EXTT3=
EXTT4=
EXTT5=
EXTT6=
EXTT7=
EXTT8=
EXTT9=
EXTT10=
EXTT11=
EXTT12=
PLAYORDER=
